<?xml version="1.0" encoding="utf-8"?>
<!-- Generator: Adobe Illustrator 16.0.0, SVG Export Plug-In . SVG Version: 6.00 Build 0)  -->
<!DOCTYPE svg PUBLIC "-//W3C//DTD SVG 1.1//EN" "http://www.w3.org/Graphics/SVG/1.1/DTD/svg11.dtd">
<svg version="1.1" id="Layer_1" xmlns="http://www.w3.org/2000/svg" xmlns:xlink="http://www.w3.org/1999/xlink" x="0px" y="0px"
	 width="150px" height="30px" viewBox="0 0 150 30" enable-background="new 0 0 150 30" xml:space="preserve">
<rect x="8.5" fill="#00D300" width="133.166" height="30"/>
<g enable-background="new    ">
	<path fill="#FFFFFF" d="M22.517,16.469l1.755,0.427c-0.368,1.387-1.03,2.446-1.985,3.174c-0.957,0.729-2.125,1.093-3.506,1.093
		c-1.429,0-2.592-0.279-3.487-0.84s-1.577-1.371-2.043-2.435c-0.468-1.063-0.702-2.203-0.702-3.421c0-1.33,0.264-2.489,0.792-3.48
		c0.527-0.989,1.278-1.741,2.252-2.255c0.974-0.513,2.046-0.771,3.216-0.771c1.326,0,2.442,0.325,3.346,0.976
		c0.905,0.65,1.535,1.564,1.891,2.743l-1.729,0.392c-0.307-0.929-0.753-1.605-1.338-2.029c-0.585-0.423-1.32-0.635-2.207-0.635
		c-1.02,0-1.872,0.235-2.556,0.705c-0.684,0.47-1.165,1.103-1.443,1.895c-0.277,0.792-0.416,1.609-0.416,2.451
		c0,1.086,0.164,2.032,0.493,2.844c0.328,0.81,0.84,1.415,1.534,1.815c0.693,0.399,1.444,0.6,2.252,0.6
		c0.983,0,1.814-0.272,2.497-0.818C21.814,18.352,22.276,17.542,22.517,16.469z"/>
	<path fill="#FFFFFF" d="M25.901,14.727c0-2.119,0.591-3.778,1.772-4.977c1.183-1.199,2.708-1.799,4.578-1.799
		c1.224,0,2.328,0.282,3.311,0.846c0.982,0.563,1.732,1.348,2.248,2.355c0.515,1.007,0.773,2.149,0.773,3.426
		c0,1.294-0.272,2.453-0.814,3.475c-0.543,1.021-1.312,1.795-2.307,2.32c-0.995,0.526-2.068,0.788-3.22,0.788
		c-1.249,0-2.364-0.29-3.348-0.871c-0.982-0.58-1.728-1.372-2.234-2.377C26.154,16.909,25.901,15.847,25.901,14.727z M27.709,14.754
		c0,1.536,0.43,2.748,1.29,3.634c0.859,0.887,1.937,1.328,3.234,1.328c1.321,0,2.408-0.446,3.261-1.34
		c0.854-0.894,1.281-2.162,1.281-3.805c0-1.04-0.184-1.946-0.548-2.722c-0.365-0.774-0.898-1.376-1.602-1.803
		c-0.702-0.427-1.491-0.639-2.365-0.639c-1.242,0-2.311,0.411-3.207,1.232C28.158,11.46,27.709,12.832,27.709,14.754z"/>
	<path fill="#FFFFFF" d="M40.791,20.944V8.179h2.641l3.139,9.04c0.29,0.84,0.5,1.47,0.633,1.889
		c0.151-0.466,0.386-1.146,0.706-2.047l3.175-8.882h2.361v12.766h-1.691V10.259L47.9,20.944h-1.583l-3.835-10.868v10.868H40.791z"/>
	<path fill="#FFFFFF" d="M56.276,20.944V8.179h5.002c0.881,0,1.553,0.041,2.018,0.122c0.651,0.105,1.196,0.303,1.637,0.596
		c0.44,0.294,0.794,0.704,1.063,1.233c0.269,0.528,0.402,1.108,0.402,1.741c0,1.085-0.358,2.004-1.076,2.755
		c-0.718,0.752-2.014,1.128-3.89,1.128h-3.401v5.19H56.276z M58.031,14.248h3.428c1.134,0,1.939-0.203,2.416-0.61
		c0.476-0.406,0.714-0.978,0.714-1.715c0-0.534-0.141-0.991-0.42-1.372c-0.28-0.38-0.65-0.631-1.108-0.753
		c-0.296-0.076-0.841-0.113-1.637-0.113h-3.393V14.248z"/>
	<path fill="#FFFFFF" d="M68.66,20.944V8.179h5.88c1.182,0,2.08,0.114,2.696,0.344c0.614,0.23,1.106,0.635,1.474,1.215
		c0.368,0.58,0.552,1.222,0.552,1.924c0,0.906-0.304,1.669-0.914,2.29c-0.608,0.622-1.55,1.016-2.821,1.184
		c0.464,0.217,0.817,0.427,1.058,0.637c0.513,0.452,0.998,1.02,1.457,1.697l2.307,3.475h-2.207l-1.755-2.655
		c-0.513-0.767-0.935-1.353-1.267-1.76c-0.332-0.406-0.629-0.691-0.892-0.854s-0.529-0.276-0.799-0.338
		c-0.199-0.041-0.525-0.063-0.979-0.063h-2.035v5.669H68.66z M70.415,13.813h3.772c0.802,0,1.429-0.081,1.881-0.24
		c0.453-0.16,0.797-0.415,1.031-0.766c0.235-0.352,0.353-0.733,0.353-1.146c0-0.604-0.228-1.1-0.682-1.489
		c-0.456-0.389-1.176-0.583-2.158-0.583h-4.197V13.813z"/>
	<path fill="#FFFFFF" d="M80.556,20.944l5.093-12.766h1.891l5.428,12.766h-2l-1.546-3.866h-5.546l-1.456,3.866H80.556z
		 M84.382,15.701h4.496l-1.384-3.534c-0.423-1.074-0.736-1.957-0.94-2.647c-0.169,0.818-0.408,1.631-0.716,2.438L84.382,15.701z"/>
	<path fill="#FFFFFF" d="M94.396,20.944V8.179h5.88c1.183,0,2.08,0.114,2.696,0.344c0.614,0.23,1.106,0.635,1.475,1.215
		c0.366,0.58,0.552,1.222,0.552,1.924c0,0.906-0.305,1.669-0.913,2.29c-0.61,0.622-1.552,1.016-2.822,1.184
		c0.463,0.217,0.815,0.427,1.058,0.637c0.513,0.452,0.997,1.02,1.457,1.697l2.305,3.475h-2.206l-1.755-2.655
		c-0.513-0.767-0.935-1.353-1.267-1.76c-0.333-0.406-0.629-0.691-0.89-0.854c-0.264-0.162-0.53-0.276-0.802-0.338
		c-0.199-0.041-0.525-0.063-0.978-0.063h-2.034v5.669H94.396z M96.151,13.813h3.771c0.802,0,1.431-0.081,1.883-0.24
		c0.452-0.16,0.795-0.415,1.029-0.766c0.236-0.352,0.354-0.733,0.354-1.146c0-0.604-0.229-1.1-0.684-1.489
		c-0.455-0.389-1.175-0.583-2.156-0.583h-4.197V13.813z"/>
</g>
<g>
	<path fill="#FFFFFF" d="M116.148,16.449l10.524-2.021l1.067-5.337H114.9l-0.672-2.593h-2.744l0.309,1.193l1.338-0.004l1.964,7.75
		c-1.233,0.513-1.772,3.779,1.143,3.779c0.701,0,10.491,0,10.491,0l0.258-1.336c0,0-9.102-0.007-10.444-0.007
		C115.213,17.875,115.171,16.679,116.148,16.449z"/>
	<circle fill="#FFFFFF" cx="117.34" cy="20.948" r="1.22"/>
	<circle fill="#FFFFFF" cx="124.752" cy="20.948" r="1.22"/>
</g>
</svg>
