<?xml version="1.0" encoding="utf-8"?>
<!-- Generator: Adobe Illustrator 16.0.0, SVG Export Plug-In . SVG Version: 6.00 Build 0)  -->
<!DOCTYPE svg PUBLIC "-//W3C//DTD SVG 1.1//EN" "http://www.w3.org/Graphics/SVG/1.1/DTD/svg11.dtd">
<svg version="1.1" id="Layer_1" xmlns="http://www.w3.org/2000/svg" xmlns:xlink="http://www.w3.org/1999/xlink" x="0px" y="0px"
	 width="150px" height="58px" viewBox="0 0 150 58" enable-background="new 0 0 150 58" xml:space="preserve">
<g>
	<rect x="8.058" y="27.026" fill="#555656" width="27.125" height="18.055"/>
	<path fill="#555656" d="M23.591,13.376h-3.942c-4.899,0-8.871,3.971-8.871,8.871v9.331h3.239v-8.414
		c0-3.736,3.028-6.764,6.764-6.764h1.678c3.736,0,6.764,3.028,6.764,6.764v8.414h3.239v-9.331
		C32.462,17.348,28.491,13.376,23.591,13.376z"/>
</g>
<g enable-background="new    ">
	<path fill="#555656" d="M44.363,45.346V32.634h1.682v11.212h6.261v1.5H44.363z"/>
	<path fill="#555656" d="M53.529,40.741c0-1.705,0.474-2.969,1.422-3.789c0.792-0.683,1.757-1.023,2.896-1.023
		c1.266,0,2.301,0.415,3.104,1.244c0.803,0.83,1.205,1.976,1.205,3.438c0,1.185-0.178,2.117-0.533,2.796
		c-0.355,0.68-0.873,1.207-1.552,1.583s-1.42,0.563-2.224,0.563c-1.289,0-2.331-0.413-3.126-1.24
		C53.926,43.487,53.529,42.297,53.529,40.741z M55.133,40.741c0,1.18,0.257,2.063,0.771,2.649c0.515,0.587,1.162,0.88,1.942,0.88
		c0.775,0,1.419-0.295,1.934-0.885c0.514-0.59,0.771-1.488,0.771-2.696c0-1.139-0.259-2.002-0.776-2.589
		c-0.518-0.586-1.161-0.88-1.93-0.88c-0.78,0-1.428,0.292-1.942,0.876C55.39,38.681,55.133,39.563,55.133,40.741z"/>
	<path fill="#555656" d="M62,48.918l0.294-1.326c0.313,0.081,0.558,0.121,0.737,0.121c0.318,0,0.555-0.105,0.711-0.316
		c0.156-0.211,0.234-0.738,0.234-1.583v-9.677h1.561v9.712c0,1.133-0.147,1.922-0.442,2.367c-0.376,0.578-1,0.867-1.873,0.867
		C62.801,49.083,62.394,49.028,62,48.918z M63.978,34.446v-1.813h1.561v1.813H63.978z"/>
	<path fill="#555656" d="M73.94,44.21c-0.578,0.491-1.134,0.838-1.669,1.04c-0.535,0.202-1.109,0.304-1.721,0.304
		c-1.012,0-1.79-0.247-2.333-0.741s-0.815-1.126-0.815-1.895c0-0.451,0.103-0.863,0.308-1.236c0.205-0.372,0.474-0.672,0.806-0.897
		c0.333-0.225,0.707-0.396,1.123-0.511c0.306-0.081,0.769-0.159,1.387-0.234c1.26-0.15,2.188-0.33,2.784-0.538
		c0.005-0.214,0.009-0.35,0.009-0.407c0-0.636-0.147-1.084-0.442-1.344c-0.399-0.353-0.992-0.529-1.778-0.529
		c-0.734,0-1.276,0.129-1.625,0.386c-0.35,0.258-0.609,0.713-0.776,1.366l-1.526-0.208c0.139-0.653,0.367-1.181,0.685-1.583
		c0.318-0.401,0.777-0.711,1.378-0.928s1.298-0.325,2.09-0.325c0.786,0,1.425,0.093,1.917,0.277
		c0.491,0.186,0.853,0.418,1.083,0.698c0.231,0.28,0.393,0.635,0.486,1.063c0.052,0.266,0.078,0.745,0.078,1.439v2.081
		c0,1.451,0.033,2.368,0.1,2.753s0.197,0.753,0.395,1.105h-1.63C74.091,45.022,73.987,44.644,73.94,44.21z M73.811,40.724
		c-0.567,0.231-1.417,0.428-2.549,0.59c-0.642,0.093-1.096,0.196-1.361,0.313c-0.266,0.115-0.471,0.284-0.616,0.507
		s-0.217,0.47-0.217,0.741c0,0.417,0.157,0.764,0.473,1.041c0.315,0.277,0.776,0.416,1.383,0.416c0.601,0,1.136-0.131,1.604-0.395
		c0.468-0.263,0.813-0.623,1.032-1.079c0.167-0.353,0.251-0.873,0.251-1.562V40.724z"/>
	<path fill="#555656" d="M82.369,41.262l1.587-0.139c0.075,0.636,0.25,1.157,0.524,1.564c0.274,0.408,0.701,0.737,1.279,0.989
		c0.578,0.251,1.229,0.377,1.951,0.377c0.641,0,1.207-0.096,1.699-0.286c0.491-0.19,0.857-0.452,1.097-0.785
		c0.239-0.332,0.36-0.694,0.36-1.088c0-0.398-0.116-0.747-0.348-1.045c-0.23-0.298-0.612-0.548-1.145-0.75
		c-0.341-0.133-1.096-0.34-2.263-0.62c-1.168-0.28-1.985-0.545-2.454-0.793c-0.607-0.318-1.06-0.713-1.357-1.184
		c-0.297-0.472-0.446-0.999-0.446-1.583c0-0.642,0.183-1.241,0.546-1.799c0.365-0.558,0.896-0.981,1.596-1.271
		s1.477-0.434,2.333-0.434c0.942,0,1.772,0.151,2.493,0.455c0.719,0.304,1.273,0.75,1.66,1.34s0.596,1.257,0.625,2.003l-1.613,0.121
		c-0.087-0.803-0.381-1.41-0.881-1.82s-1.238-0.616-2.215-0.616c-1.018,0-1.759,0.187-2.225,0.56
		c-0.465,0.373-0.697,0.822-0.697,1.349c0,0.456,0.164,0.832,0.494,1.127c0.323,0.295,1.169,0.597,2.536,0.906
		s2.305,0.579,2.813,0.811c0.74,0.342,1.287,0.773,1.639,1.297c0.354,0.522,0.529,1.126,0.529,1.808
		c0,0.677-0.193,1.313-0.581,1.912s-0.944,1.063-1.669,1.396c-0.726,0.333-1.543,0.499-2.449,0.499c-1.15,0-2.115-0.168-2.893-0.503
		s-1.387-0.84-1.83-1.513C82.625,42.873,82.393,42.111,82.369,41.262z"/>
	<path fill="#555656" d="M100.891,42.38l1.613,0.2c-0.255,0.941-0.727,1.673-1.414,2.193s-1.566,0.78-2.636,0.78
		c-1.347,0-2.415-0.415-3.204-1.244s-1.184-1.993-1.184-3.49c0-1.549,0.398-2.752,1.197-3.607c0.797-0.855,1.832-1.283,3.104-1.283
		c1.231,0,2.237,0.419,3.018,1.258c0.78,0.838,1.171,2.018,1.171,3.537c0,0.093-0.003,0.231-0.009,0.417H95.68
		c0.057,1.012,0.344,1.786,0.857,2.323c0.516,0.538,1.156,0.807,1.926,0.807c0.572,0,1.061-0.15,1.465-0.451
		C100.332,43.52,100.653,43.039,100.891,42.38z M95.766,39.856h5.143c-0.07-0.774-0.266-1.355-0.59-1.742
		c-0.497-0.602-1.142-0.902-1.934-0.902c-0.717,0-1.32,0.24-1.809,0.72C96.088,38.412,95.818,39.054,95.766,39.856z"/>
	<path fill="#555656" d="M104.177,46.108l1.518,0.226c0.063,0.469,0.239,0.81,0.528,1.023c0.388,0.289,0.917,0.434,1.588,0.434
		c0.723,0,1.279-0.145,1.674-0.434c0.393-0.289,0.658-0.693,0.797-1.214c0.081-0.318,0.119-0.985,0.113-2.003
		c-0.683,0.804-1.532,1.205-2.55,1.205c-1.266,0-2.245-0.457-2.939-1.37s-1.04-2.009-1.04-3.286c0-0.879,0.158-1.689,0.477-2.433
		c0.318-0.742,0.779-1.316,1.383-1.721c0.604-0.405,1.314-0.607,2.129-0.607c1.087,0,1.982,0.439,2.688,1.318v-1.11h1.439v7.96
		c0,1.434-0.146,2.45-0.438,3.048c-0.292,0.599-0.754,1.071-1.387,1.418s-1.412,0.521-2.338,0.521c-1.098,0-1.985-0.247-2.662-0.741
		C104.48,47.848,104.154,47.103,104.177,46.108z M105.469,40.576c0,1.209,0.24,2.09,0.72,2.646c0.479,0.555,1.081,0.832,1.804,0.832
		c0.717,0,1.318-0.276,1.804-0.828s0.729-1.418,0.729-2.597c0-1.128-0.251-1.978-0.75-2.55c-0.501-0.572-1.103-0.858-1.808-0.858
		c-0.694,0-1.283,0.282-1.77,0.846C105.712,38.63,105.469,39.467,105.469,40.576z"/>
	<path fill="#555656" d="M120.375,45.346v-1.353c-0.717,1.04-1.691,1.561-2.922,1.561c-0.544,0-1.051-0.104-1.522-0.313
		c-0.472-0.208-0.821-0.469-1.05-0.784s-0.389-0.701-0.48-1.158c-0.064-0.306-0.096-0.791-0.096-1.456v-5.706h1.561v5.107
		c0,0.815,0.032,1.364,0.096,1.647c0.098,0.411,0.307,0.732,0.625,0.967c0.317,0.234,0.711,0.352,1.179,0.352s0.907-0.12,1.317-0.36
		c0.411-0.239,0.701-0.566,0.872-0.979s0.256-1.013,0.256-1.799v-4.935h1.562v9.209H120.375z"/>
	<path fill="#555656" d="M124.199,45.346v-9.209h1.404v1.396c0.358-0.653,0.689-1.084,0.992-1.292
		c0.305-0.208,0.638-0.313,1.002-0.313c0.525,0,1.061,0.168,1.604,0.503l-0.538,1.448c-0.381-0.226-0.763-0.338-1.145-0.338
		c-0.341,0-0.647,0.103-0.919,0.308c-0.272,0.205-0.466,0.49-0.581,0.854c-0.174,0.556-0.26,1.162-0.26,1.821v4.821H124.199z"/>
	<path fill="#555656" d="M136.139,44.21c-0.578,0.491-1.134,0.838-1.668,1.04c-0.535,0.202-1.109,0.304-1.722,0.304
		c-1.012,0-1.79-0.247-2.333-0.741s-0.814-1.126-0.814-1.895c0-0.451,0.102-0.863,0.308-1.236c0.205-0.372,0.474-0.672,0.806-0.897
		c0.333-0.225,0.707-0.396,1.123-0.511c0.307-0.081,0.77-0.159,1.388-0.234c1.261-0.15,2.188-0.33,2.784-0.538
		c0.005-0.214,0.008-0.35,0.008-0.407c0-0.636-0.146-1.084-0.441-1.344c-0.399-0.353-0.992-0.529-1.778-0.529
		c-0.733,0-1.276,0.129-1.626,0.386c-0.35,0.258-0.608,0.713-0.775,1.366l-1.526-0.208c0.139-0.653,0.366-1.181,0.685-1.583
		c0.318-0.401,0.777-0.711,1.379-0.928s1.298-0.325,2.09-0.325c0.786,0,1.425,0.093,1.916,0.277
		c0.492,0.186,0.854,0.418,1.084,0.698c0.231,0.28,0.393,0.635,0.486,1.063c0.052,0.266,0.078,0.745,0.078,1.439v2.081
		c0,1.451,0.033,2.368,0.1,2.753s0.197,0.753,0.395,1.105h-1.631C136.289,45.022,136.186,44.644,136.139,44.21z M136.01,40.724
		c-0.567,0.231-1.417,0.428-2.55,0.59c-0.642,0.093-1.096,0.196-1.361,0.313c-0.267,0.115-0.472,0.284-0.616,0.507
		s-0.217,0.47-0.217,0.741c0,0.417,0.158,0.764,0.473,1.041c0.315,0.277,0.776,0.416,1.383,0.416c0.602,0,1.137-0.131,1.604-0.395
		c0.468-0.263,0.813-0.623,1.032-1.079c0.168-0.353,0.252-0.873,0.252-1.562V40.724z"/>
</g>
<g enable-background="new    ">
	<path fill="#555656" d="M47.647,27.286l-3.287-8.483h1.215l2.205,6.163c0.177,0.493,0.326,0.957,0.446,1.389
		c0.131-0.463,0.283-0.926,0.457-1.389l2.292-6.163h1.146l-3.322,8.483H47.647z"/>
	<path fill="#555656" d="M51.953,24.213c0-1.138,0.316-1.98,0.949-2.528c0.528-0.455,1.172-0.683,1.933-0.683
		c0.845,0,1.536,0.276,2.072,0.83s0.804,1.318,0.804,2.294c0,0.791-0.119,1.413-0.356,1.867c-0.237,0.453-0.583,0.805-1.036,1.056
		s-0.948,0.376-1.484,0.376c-0.86,0-1.556-0.275-2.086-0.827C52.218,26.046,51.953,25.251,51.953,24.213z M53.023,24.213
		c0,0.787,0.172,1.377,0.515,1.769s0.775,0.587,1.296,0.587c0.517,0,0.947-0.196,1.291-0.59s0.515-0.993,0.515-1.8
		c0-0.76-0.173-1.336-0.518-1.728s-0.774-0.588-1.288-0.588c-0.521,0-0.953,0.195-1.296,0.585S53.023,23.426,53.023,24.213z"/>
	<path fill="#555656" d="M62.942,25.035l1.024,0.133c-0.112,0.706-0.398,1.259-0.859,1.658s-1.027,0.599-1.698,0.599
		c-0.841,0-1.518-0.274-2.029-0.824s-0.767-1.338-0.767-2.364c0-0.663,0.11-1.244,0.33-1.742c0.22-0.497,0.554-0.87,1.004-1.119
		c0.449-0.249,0.938-0.373,1.467-0.373c0.667,0,1.213,0.168,1.638,0.506s0.696,0.817,0.816,1.438l-1.013,0.156
		c-0.096-0.413-0.267-0.724-0.512-0.932c-0.245-0.209-0.542-0.313-0.889-0.313c-0.524,0-0.951,0.188-1.279,0.563
		c-0.328,0.377-0.492,0.972-0.492,1.785c0,0.826,0.158,1.426,0.475,1.8c0.316,0.375,0.729,0.562,1.238,0.562
		c0.409,0,0.75-0.125,1.024-0.376C62.695,25.941,62.869,25.556,62.942,25.035z"/>
	<path fill="#555656" d="M69.065,25.307l1.077,0.134c-0.17,0.629-0.484,1.116-0.943,1.464c-0.459,0.347-1.046,0.521-1.759,0.521
		c-0.899,0-1.612-0.276-2.138-0.83c-0.527-0.554-0.79-1.33-0.79-2.329c0-1.034,0.266-1.837,0.798-2.407
		c0.533-0.571,1.223-0.856,2.072-0.856c0.822,0,1.493,0.279,2.014,0.839c0.521,0.56,0.781,1.347,0.781,2.361
		c0,0.062-0.002,0.154-0.006,0.277h-4.583c0.039,0.675,0.229,1.192,0.573,1.551c0.343,0.358,0.771,0.538,1.285,0.538
		c0.382,0,0.708-0.1,0.978-0.301C68.693,26.067,68.907,25.747,69.065,25.307z M67.358,19.393l-0.654,0.984h-1.192l1.25-1.621h1.111
		l1.302,1.621h-1.18L67.358,19.393z M65.645,23.623h3.432c-0.046-0.517-0.178-0.904-0.394-1.163
		c-0.332-0.401-0.762-0.602-1.291-0.602c-0.479,0-0.88,0.16-1.207,0.479C65.86,22.658,65.68,23.087,65.645,23.623z"/>
	<path fill="#555656" d="M78.949,25.307l1.076,0.134c-0.17,0.629-0.484,1.116-0.943,1.464c-0.459,0.347-1.045,0.521-1.759,0.521
		c-0.899,0-1.612-0.276-2.138-0.83c-0.527-0.554-0.79-1.33-0.79-2.329c0-1.034,0.266-1.837,0.798-2.407
		c0.533-0.571,1.223-0.856,2.072-0.856c0.821,0,1.492,0.279,2.014,0.839c0.521,0.56,0.781,1.347,0.781,2.361
		c0,0.062-0.002,0.154-0.006,0.277h-4.583c0.039,0.675,0.23,1.192,0.574,1.551c0.343,0.358,0.771,0.538,1.284,0.538
		c0.382,0,0.708-0.1,0.978-0.301C78.577,26.067,78.791,25.747,78.949,25.307z M75.529,23.623h3.432
		c-0.047-0.517-0.178-0.904-0.394-1.163c-0.332-0.401-0.763-0.602-1.29-0.602c-0.479,0-0.881,0.16-1.207,0.479
		C75.744,22.658,75.564,23.087,75.529,23.623z"/>
	<path fill="#555656" d="M80.917,25.452l1.03-0.162c0.058,0.412,0.219,0.729,0.482,0.948c0.265,0.221,0.635,0.33,1.108,0.33
		c0.479,0,0.833-0.098,1.065-0.292c0.23-0.195,0.347-0.424,0.347-0.686c0-0.235-0.103-0.421-0.307-0.556
		c-0.143-0.093-0.497-0.21-1.065-0.354c-0.764-0.192-1.293-0.359-1.588-0.5s-0.52-0.336-0.672-0.585s-0.229-0.523-0.229-0.824
		c0-0.274,0.063-0.527,0.188-0.761c0.126-0.233,0.296-0.428,0.513-0.582c0.162-0.119,0.383-0.221,0.662-0.304s0.58-0.124,0.9-0.124
		c0.482,0,0.905,0.069,1.27,0.208c0.365,0.139,0.634,0.327,0.808,0.564s0.293,0.555,0.358,0.951l-1.018,0.14
		c-0.047-0.316-0.182-0.563-0.402-0.741c-0.223-0.178-0.535-0.266-0.941-0.266c-0.479,0-0.819,0.079-1.023,0.237
		c-0.205,0.158-0.307,0.343-0.307,0.555c0,0.136,0.042,0.257,0.127,0.365c0.085,0.111,0.218,0.204,0.399,0.277
		c0.104,0.039,0.411,0.128,0.92,0.267c0.737,0.196,1.251,0.357,1.542,0.483c0.291,0.125,0.52,0.308,0.686,0.547
		s0.25,0.536,0.25,0.891c0,0.348-0.102,0.674-0.305,0.981c-0.202,0.307-0.494,0.544-0.877,0.711
		c-0.381,0.168-0.813,0.252-1.296,0.252c-0.798,0-1.407-0.166-1.825-0.497C81.3,26.596,81.033,26.104,80.917,25.452z"/>
	<path fill="#555656" d="M89.533,26.354l0.15,0.92c-0.293,0.062-0.555,0.093-0.787,0.093c-0.377,0-0.671-0.06-0.879-0.18
		c-0.209-0.119-0.355-0.276-0.439-0.472c-0.086-0.194-0.128-0.604-0.128-1.229V21.95h-0.764v-0.81h0.764v-1.522l1.036-0.625v2.147
		h1.047v0.81h-1.047v3.594c0,0.298,0.018,0.488,0.055,0.573s0.097,0.152,0.18,0.202c0.082,0.051,0.201,0.075,0.355,0.075
		C89.191,26.395,89.344,26.382,89.533,26.354z"/>
	<path fill="#555656" d="M94.563,26.528c-0.386,0.328-0.758,0.56-1.113,0.694c-0.357,0.135-0.74,0.202-1.149,0.202
		c-0.675,0-1.194-0.165-1.557-0.494c-0.362-0.33-0.544-0.752-0.544-1.265c0-0.301,0.068-0.576,0.205-0.825
		c0.137-0.248,0.316-0.448,0.539-0.599c0.221-0.15,0.471-0.265,0.749-0.342c0.204-0.054,0.513-0.105,0.926-0.156
		c0.841-0.1,1.46-0.22,1.857-0.358c0.004-0.143,0.006-0.233,0.006-0.272c0-0.424-0.099-0.723-0.295-0.896
		c-0.267-0.235-0.661-0.354-1.187-0.354c-0.49,0-0.852,0.086-1.085,0.258s-0.406,0.476-0.519,0.912l-1.018-0.14
		c0.092-0.436,0.244-0.788,0.457-1.056c0.212-0.269,0.519-0.475,0.92-0.619s0.866-0.217,1.395-0.217
		c0.525,0,0.951,0.062,1.279,0.185c0.328,0.124,0.568,0.279,0.723,0.466c0.154,0.188,0.263,0.424,0.324,0.709
		c0.035,0.178,0.053,0.498,0.053,0.961v1.389c0,0.969,0.021,1.581,0.066,1.837c0.044,0.257,0.132,0.503,0.264,0.738h-1.088
		C94.663,27.07,94.594,26.817,94.563,26.528z M94.476,24.202c-0.378,0.154-0.944,0.285-1.701,0.393
		c-0.429,0.063-0.731,0.132-0.909,0.209c-0.177,0.077-0.314,0.189-0.41,0.338c-0.097,0.149-0.145,0.313-0.145,0.495
		c0,0.278,0.105,0.51,0.314,0.694c0.211,0.186,0.519,0.278,0.924,0.278c0.4,0,0.758-0.088,1.07-0.264s0.542-0.416,0.689-0.721
		c0.111-0.235,0.167-0.582,0.167-1.041V24.202z M92.45,20.377l0.771-1.621h1.365l-1.273,1.621H92.45z"/>
	<path fill="#555656" d="M104.643,25.307l1.077,0.134c-0.17,0.629-0.484,1.116-0.943,1.464c-0.46,0.347-1.046,0.521-1.759,0.521
		c-0.899,0-1.612-0.276-2.139-0.83c-0.527-0.554-0.79-1.33-0.79-2.329c0-1.034,0.267-1.837,0.798-2.407
		c0.533-0.571,1.224-0.856,2.072-0.856c0.822,0,1.493,0.279,2.014,0.839c0.521,0.56,0.781,1.347,0.781,2.361
		c0,0.062-0.002,0.154-0.006,0.277h-4.583c0.038,0.675,0.229,1.192,0.573,1.551s0.771,0.538,1.285,0.538
		c0.381,0,0.707-0.1,0.978-0.301C104.271,26.067,104.484,25.747,104.643,25.307z M101.223,23.623h3.432
		c-0.046-0.517-0.178-0.904-0.393-1.163c-0.332-0.401-0.763-0.602-1.291-0.602c-0.479,0-0.881,0.16-1.207,0.479
		C101.438,22.658,101.258,23.087,101.223,23.623z"/>
	<path fill="#555656" d="M107.027,27.286v-6.146h0.932v0.862c0.193-0.301,0.449-0.543,0.77-0.727s0.686-0.274,1.094-0.274
		c0.456,0,0.829,0.094,1.121,0.283c0.291,0.189,0.496,0.453,0.615,0.793c0.486-0.718,1.119-1.076,1.898-1.076
		c0.609,0,1.078,0.168,1.406,0.506s0.492,0.857,0.492,1.56v4.219h-1.036v-3.871c0-0.417-0.034-0.717-0.101-0.9
		c-0.068-0.183-0.191-0.331-0.368-0.442c-0.177-0.112-0.386-0.168-0.625-0.168c-0.433,0-0.791,0.144-1.076,0.431
		c-0.286,0.288-0.429,0.748-0.429,1.381v3.57h-1.041v-3.993c0-0.463-0.085-0.81-0.255-1.041c-0.17-0.232-0.448-0.348-0.833-0.348
		c-0.293,0-0.564,0.077-0.813,0.231s-0.429,0.38-0.541,0.677c-0.112,0.298-0.168,0.726-0.168,1.285v3.188H107.027z"/>
	<path fill="#555656" d="M124.221,27.286v-0.902c-0.479,0.694-1.129,1.041-1.95,1.041c-0.362,0-0.701-0.069-1.016-0.208
		s-0.548-0.313-0.7-0.523c-0.152-0.211-0.26-0.468-0.321-0.773c-0.042-0.204-0.063-0.528-0.063-0.972v-3.808h1.041v3.408
		c0,0.544,0.021,0.91,0.064,1.1c0.065,0.274,0.204,0.489,0.416,0.646c0.213,0.156,0.475,0.234,0.787,0.234s0.605-0.08,0.88-0.24
		s0.468-0.378,0.581-0.654c0.114-0.275,0.172-0.676,0.172-1.2v-3.293h1.041v6.146H124.221z"/>
	<path fill="#555656" d="M126.784,27.286v-6.146h0.932v0.862c0.192-0.301,0.449-0.543,0.77-0.727s0.685-0.274,1.094-0.274
		c0.456,0,0.829,0.094,1.12,0.283s0.496,0.453,0.616,0.793c0.485-0.718,1.118-1.076,1.897-1.076c0.61,0,1.079,0.168,1.406,0.506
		c0.328,0.338,0.492,0.857,0.492,1.56v4.219h-1.035v-3.871c0-0.417-0.034-0.717-0.102-0.9c-0.068-0.183-0.19-0.331-0.367-0.442
		c-0.178-0.112-0.387-0.168-0.625-0.168c-0.433,0-0.791,0.144-1.076,0.431c-0.286,0.288-0.429,0.748-0.429,1.381v3.57h-1.042v-3.993
		c0-0.463-0.084-0.81-0.254-1.041c-0.17-0.232-0.448-0.348-0.834-0.348c-0.293,0-0.564,0.077-0.813,0.231
		c-0.25,0.154-0.43,0.38-0.541,0.677c-0.112,0.298-0.168,0.726-0.168,1.285v3.188H126.784z"/>
	<path fill="#555656" d="M140.667,26.528c-0.386,0.328-0.757,0.56-1.114,0.694c-0.356,0.135-0.739,0.202-1.148,0.202
		c-0.676,0-1.193-0.165-1.557-0.494c-0.363-0.33-0.544-0.752-0.544-1.265c0-0.301,0.068-0.576,0.206-0.825
		c0.137-0.248,0.316-0.448,0.537-0.599c0.223-0.15,0.473-0.265,0.75-0.342c0.204-0.054,0.513-0.105,0.926-0.156
		c0.841-0.1,1.461-0.22,1.857-0.358c0.004-0.143,0.006-0.233,0.006-0.272c0-0.424-0.098-0.723-0.295-0.896
		c-0.266-0.235-0.662-0.354-1.187-0.354c-0.489,0-0.852,0.086-1.085,0.258s-0.406,0.476-0.518,0.912l-1.02-0.14
		c0.094-0.436,0.246-0.788,0.458-1.056c0.212-0.269,0.519-0.475,0.92-0.619s0.866-0.217,1.395-0.217
		c0.524,0,0.951,0.062,1.279,0.185c0.327,0.124,0.569,0.279,0.724,0.466c0.154,0.188,0.262,0.424,0.324,0.709
		c0.034,0.178,0.051,0.498,0.051,0.961v1.389c0,0.969,0.023,1.581,0.067,1.837c0.044,0.257,0.132,0.503,0.263,0.738h-1.088
		C140.768,27.07,140.697,26.817,140.667,26.528z M140.58,24.202c-0.378,0.154-0.945,0.285-1.701,0.393
		c-0.428,0.063-0.73,0.132-0.908,0.209s-0.314,0.189-0.411,0.338c-0.097,0.149-0.145,0.313-0.145,0.495
		c0,0.278,0.104,0.51,0.315,0.694c0.21,0.186,0.518,0.278,0.923,0.278c0.401,0,0.758-0.088,1.07-0.264s0.542-0.416,0.688-0.721
		c0.112-0.235,0.168-0.582,0.168-1.041V24.202z"/>
</g>
</svg>
